<?xml version="1.0" standalone="no"?>
<!DOCTYPE svg PUBLIC "-//W3C//DTD SVG 20010904//EN"
 "http://www.w3.org/TR/2001/REC-SVG-20010904/DTD/svg10.dtd">
<svg version="1.0" xmlns="http://www.w3.org/2000/svg"
 width="260.000000pt" height="260.000000pt" viewBox="0 0 260.000000 260.000000"
 preserveAspectRatio="xMidYMid meet">
<metadata>
Created by potrace 1.11, written by Peter Selinger 2001-2013
</metadata>
<g transform="translate(0.000000,260.000000) scale(0.100000,-0.100000)"
fill="#000000" stroke="none">
<path d="M988 2104 c-2 -223 0 -410 3 -415 3 -5 79 15 170 45 90 29 279 91
419 136 579 188 682 222 678 225 -5 5 -244 83 -868 285 -190 61 -355 115 -368
120 -13 6 -25 10 -27 10 -3 0 -6 -183 -7 -406z m622 172 c228 -74 448 -145
488 -157 l72 -23 -187 -62 c-104 -35 -357 -117 -563 -184 -206 -68 -380 -125
-387 -127 -10 -4 -13 70 -13 370 l0 376 88 -29 c48 -16 274 -89 502 -164z"/>
<path d="M852 2323 c-24 -32 -71 -96 -105 -144 -34 -47 -190 -261 -346 -476
-156 -215 -283 -395 -283 -399 0 -5 90 -37 199 -72 109 -35 284 -92 388 -127
l190 -62 3 333 c1 184 1 485 0 669 l-3 336 -43 -58z m14 -1231 c-3 -2 -49 10
-103 27 -267 86 -598 194 -601 196 -2 1 88 128 200 282 112 153 271 372 353
486 l150 207 3 -597 c1 -328 0 -598 -2 -601z"/>
<path d="M2145 1963 c-143 -47 -318 -104 -388 -126 -71 -23 -129 -46 -129 -51
0 -4 174 -249 388 -544 l389 -535 3 336 c1 186 1 487 0 670 l-3 334 -260 -84z"/>
<path d="M1715 943 c-452 -625 -528 -730 -557 -767 -30 -37 -30 -38 -7 -31 39
11 575 183 684 219 55 19 207 68 338 111 l238 77 -24 31 c-12 18 -122 168
-242 335 -120 166 -221 302 -224 302 -3 -1 -96 -125 -206 -277z m263 154 c28
-39 126 -173 216 -297 90 -124 161 -228 157 -231 -3 -4 -148 -53 -321 -109
-173 -56 -373 -121 -445 -145 -278 -91 -358 -115 -362 -111 -3 2 23 42 57 88
34 45 108 148 166 228 58 80 113 155 122 167 9 12 91 126 182 252 91 127 167
230 170 230 3 1 29 -32 58 -72z"/>
<path d="M207 1167 c7 -12 232 -323 265 -367 11 -14 50 -68 88 -120 101 -140
130 -180 171 -235 20 -27 86 -119 147 -203 l110 -152 104 142 c252 344 378
520 378 527 0 5 -401 142 -430 146 -3 1 -84 27 -180 59 -261 86 -601 197 -633
206 -20 7 -25 6 -20 -3z m138 -67 c11 -5 76 -26 145 -48 69 -22 229 -74 355
-115 127 -41 310 -101 408 -132 l177 -58 -23 -31 c-13 -17 -113 -154 -222
-304 -174 -240 -200 -272 -209 -255 -6 11 -23 35 -37 54 -15 19 -165 225 -334
459 -170 234 -313 431 -319 439 -9 11 -6 13 14 7 14 -4 34 -11 45 -16z"/>
</g>
</svg>
