<svg xmlns="http://www.w3.org/2000/svg" width="50" height="47" fill="none" viewBox="0 0 50 47">
	<path stroke="#15151A" stroke-linecap="round" stroke-linejoin="round" stroke-miterlimit="10" d="M3.89 23.5c0-12.345 10.101-22.38 22.527-22.38S48.943 11.154 48.943 23.5c0 12.347-10.1 22.382-22.526 22.382-7.993 0-15.042-4.115-19.038-10.396"/>
	<path stroke="#15151A" stroke-linecap="round" stroke-linejoin="round" stroke-miterlimit="10" d="M26.273 35.051V11.226h8.72V35.05h-8.72zM30.633 20.611v10.83M17.547 35.051V11.226h8.72V35.05h-8.72zM21.91 20.611v5.054M21.91 28.555v2.888M.984 21.335l2.907 2.888 2.907-2.888"/>
	<path stroke="#15151A" stroke-width=".75" d="M21.91 17.35c.598 0 1.079-.481 1.079-1.07 0-.587-.48-1.068-1.079-1.068-.598 0-1.078.48-1.078 1.069 0 .588.48 1.069 1.078 1.069zM30.633 17.35c.598 0 1.078-.481 1.078-1.07 0-.587-.48-1.068-1.078-1.068-.598 0-1.078.48-1.078 1.069 0 .588.48 1.069 1.078 1.069z"/>
</svg>
