<svg width="50" height="47" viewBox="0 0 50 47" fill="none" xmlns="http://www.w3.org/2000/svg">
<path d="M3.89063 23.5007C3.89063 11.1548 13.9912 1.11914 26.4171 1.11914C38.8429 1.11914 48.9435 11.1548 48.9435 23.5007C48.9435 35.8467 38.8429 45.8823 26.4171 45.8823C18.4238 45.8823 11.3752 41.767 7.37858 35.4857" stroke="#15151A" stroke-miterlimit="10" stroke-linecap="round" stroke-linejoin="round"/>
<path d="M26.2734 35.0511L26.2734 11.2256L34.9934 11.2256L34.9934 35.0511L26.2734 35.0511Z" stroke="#15151A" stroke-miterlimit="10" stroke-linecap="round" stroke-linejoin="round"/>
<path d="M30.6328 20.6113L30.6328 31.4411" stroke="#15151A" stroke-miterlimit="10" stroke-linecap="round" stroke-linejoin="round"/>
<path d="M17.5469 35.0511L17.5469 11.2256L26.2668 11.2256L26.2668 35.0511L17.5469 35.0511Z" stroke="#15151A" stroke-miterlimit="10" stroke-linecap="round" stroke-linejoin="round"/>
<path d="M21.9102 20.6113L21.9102 25.6652" stroke="#15151A" stroke-miterlimit="10" stroke-linecap="round" stroke-linejoin="round"/>
<path d="M21.9102 28.5547L21.9102 31.4427" stroke="#15151A" stroke-miterlimit="10" stroke-linecap="round" stroke-linejoin="round"/>
<path d="M0.984375 21.335L3.89101 24.2229L6.79764 21.335" stroke="#15151A" stroke-miterlimit="10" stroke-linecap="round" stroke-linejoin="round"/>
<path d="M21.9104 17.3499C22.5082 17.3499 22.9887 16.869 22.9887 16.2809C22.9887 15.6928 22.5082 15.2119 21.9104 15.2119C21.3125 15.2119 20.832 15.6928 20.832 16.2809C20.832 16.869 21.3125 17.3499 21.9104 17.3499Z" stroke="#15151A" stroke-width="0.75"/>
<path d="M30.633 17.3499C31.2308 17.3499 31.7113 16.869 31.7113 16.2809C31.7113 15.6928 31.2308 15.2119 30.633 15.2119C30.0352 15.2119 29.5547 15.6928 29.5547 16.2809C29.5547 16.869 30.0352 17.3499 30.633 17.3499Z" stroke="#15151A" stroke-width="0.75"/>
</svg>
