<svg xmlns="http://www.w3.org/2000/svg" width="44" height="44" fill="none" viewBox="0 0 44 44">
	<path stroke="#000" stroke-linecap="round" stroke-linejoin="round" stroke-miterlimit="10" d="M40.799 33.103H3.205c-1.278 0-2.256-.995-2.256-2.297V7.072c0-1.301.978-2.297 2.256-2.297h37.594c1.278 0 2.255.996 2.255 2.297v23.734c0 1.302-1.052 2.297-2.255 2.297zM22.004 33.103v5.36M22.004.947v3.828M11.473 43.054l10.526-4.594 10.526 4.594"/>
	<path stroke="#000" stroke-linecap="round" stroke-linejoin="round" stroke-miterlimit="10" d="M6.21 26.212l4.512-8.422 6.767 3.828L22 11.665M26.516 12.434h11.278M26.516 17.024h11.278M26.516 21.621h11.278M26.516 26.21h11.278"/>
</svg>
