<svg width="44" height="44" viewBox="0 0 44 44" fill="none" xmlns="http://www.w3.org/2000/svg">
<path d="M40.7988 33.103L3.20486 33.103C1.92666 33.103 0.949219 32.1077 0.949219 30.8061L0.949219 7.07222C0.949219 5.77068 1.92666 4.77539 3.20486 4.77539L40.7988 4.77539C42.077 4.77539 43.0545 5.77068 43.0545 7.07222L43.0545 30.8061C43.0545 32.1077 42.0018 33.103 40.7988 33.103Z" stroke="black" stroke-miterlimit="10" stroke-linecap="round" stroke-linejoin="round"/>
<path d="M22.0039 33.1035L22.0039 38.4627" stroke="black" stroke-miterlimit="10" stroke-linecap="round" stroke-linejoin="round"/>
<path d="M22.0039 0.947266L22.0039 4.77532" stroke="black" stroke-miterlimit="10" stroke-linecap="round" stroke-linejoin="round"/>
<path d="M11.4727 43.0536L21.999 38.46L32.5253 43.0536" stroke="black" stroke-miterlimit="10" stroke-linecap="round" stroke-linejoin="round"/>
<path d="M6.21094 26.2116L10.7222 17.7899L17.4891 21.618L22.0004 11.665" stroke="black" stroke-miterlimit="10" stroke-linecap="round" stroke-linejoin="round"/>
<path d="M26.5156 12.4336L37.7938 12.4336" stroke="black" stroke-miterlimit="10" stroke-linecap="round" stroke-linejoin="round"/>
<path d="M26.5156 17.0244L37.7938 17.0244" stroke="black" stroke-miterlimit="10" stroke-linecap="round" stroke-linejoin="round"/>
<path d="M26.5156 21.6211L37.7938 21.6211" stroke="black" stroke-miterlimit="10" stroke-linecap="round" stroke-linejoin="round"/>
<path d="M26.5156 26.2109L37.7938 26.2109" stroke="black" stroke-miterlimit="10" stroke-linecap="round" stroke-linejoin="round"/>
</svg>
