<svg xmlns="http://www.w3.org/2000/svg" width="48" height="44" fill="none" viewBox="0 0 48 44">
	<path stroke="#000" stroke-linecap="round" stroke-linejoin="round" stroke-miterlimit="10" d="M41.769 13.5C41.389 6.5 35.606.947 28.532.947a13.274 13.274 0 0 0-11.184 6.086c-1.14.076-2.206.229-3.271.533l-1.598-2.739c-2.206.76-4.26 1.902-5.933 3.424l1.597 2.738c-1.293 1.293-2.434 2.815-3.119 4.489l-3.043-.609C1.221 16.847.84 18.977.84 21.26v.229l3.119.76c.152 1.826.609 3.5 1.37 5.021l-2.435 1.902c1.141 2.054 2.586 3.804 4.412 5.25l2.435-1.902c2.282 1.673 5.173 2.662 8.216 2.662h17.497c6.543 0 11.792-5.249 11.792-11.791a12.053 12.053 0 0 0-5.477-9.89z"/>
	<path fill="#fff" stroke="#000" stroke-linecap="round" stroke-linejoin="round" stroke-miterlimit="10" d="M21.132 38.005v5.264h-3.828v-5.264h-2.296l4.21-5.263 4.21 5.263h-2.296zM32.346 14.848h-5.201V29.04H23.43l6.316 8.965 6.315-8.965h-3.715V14.848z"/>
</svg>
