<svg xmlns="http://www.w3.org/2000/svg" width="81" height="54" fill="none" viewBox="0 0 81 54">
	<path stroke="#000" stroke-linecap="round" stroke-linejoin="round" stroke-miterlimit="10" d="M77.373 22.265l-14.647-1.02-3.146-.253a1.442 1.442 0 0 0-1.606 1.398l-1.42 20.1c-.077.763.56 1.508 1.323 1.584l2.815.309 11.943 1.038M12.041 2.249l12.007 7.654 3.631 2.525c.654.436.843 1.36.408 2.013L18.15 30.76c-.458.725-1.308.937-2.055.552l-2.68-1.526-10.782-6.472"/>
	<path stroke="#000" stroke-linecap="round" stroke-linejoin="round" stroke-miterlimit="10" d="M27.926 14.713s1.771 1.406 3.425 1.911c1.726.527 3.212.037 5.112-1.035 1.9-1.072 6.016-1.94 7.664 1.16M57.846 23.056c-1.808-.001-3.228.273-4.44-.648-1.213-.92-3.175-3.25-5.438-4.335-2.263-1.084-5.43-1.265-8.038.063-2.628 1.4-3.306 2.846-4.003 5.387-.697 2.54.03 4.021.965 4.306.935.286 2.337-.702 2.623-1.637.285-.936 1.76-1.902 3.356-2.752 1.596-.85 2.083-.387 2.482.365.4.751 1.692 5.787 4.053 8.868 2.361 3.082 2.055 5.112 1.14 6.564-.892 1.38-8.469 2.764-11.112 2.665-2.57-.077-4.174-2.27-4.174-2.27M51.293 38.6c2.687-.045 5.42.79 5.42.79"/>
	<path stroke="#000" stroke-linecap="round" stroke-linejoin="round" stroke-miterlimit="10" d="M34.4 41.15c1.087-1.241 1.559-3.3-.568-5.602-2.128-2.302-4.874-4.635-6.23-5.6-1.357-.965-3.736.905-2.637 2.971 1.099 2.067 4.866 6.207 6.212 7.72 1.418 1.533 2.507 1.315 3.224.511zM24.973 30.566c-1.168-1.065-2.055-2.28-4.512-3.502"/>
</svg>
