<svg xmlns="http://www.w3.org/2000/svg" width="569" height="564" fill="none" viewBox="0 0 569 564">
	<path fill="#fff" d="M89.832 293.729l109.254-185.332.229.458 88.318 185.446h-.458l-197.343-.572zm109.139-184.188L90.861 293.042l195.857.687-87.747-184.188z"/>
	<path fill="#fff" d="M287.177 294.53l-.229-.458-88.432-185.445h.457l189.564 21.164-.229.344L287.177 294.53zm-87.746-185.217l87.746 184.073 100.331-163.137-188.077-20.936z"/>
	<path fill="#fff" d="M388.535 130.362h-.457l-189.793-21.164.687-.458 141.515-96.326.114.343 47.934 117.605zM199.772 108.74l187.848 20.936-47.362-116.461-140.486 95.525z"/>
	<path fill="#fff" d="M198.86 109.427l-.114-.343-41.07-83.285h.457l183.272-13.385-142.545 97.013zm-40.269-83.056l40.498 82.255 140.257-95.411L158.591 26.37z"/>
	<path fill="#fff" d="M158.131 26.372l-.114-.573L282.6 2.004l58.901 10.754-183.37 13.614zM282.715 2.576L163.05 25.456l175.035-12.698-55.37-10.182z"/>
	<path fill="#fff" d="M481.084 136.313l-93.237-6.063-.115-.115-48.048-118.291 141.4 124.469zm-92.894-6.521l91.293 5.949L341.056 13.789l47.134 116.003z"/>
	<path fill="#fff" d="M480.858 137.229L339 11.959l94.61 35.693v.115l47.248 89.462zM341.746 13.675l137.282 121.152-45.875-86.717-91.407-34.435z"/>
	<path fill="#fff" d="M480.172 136.313L433 47.499l78.174 77.373-31.002 11.441zm-45.647-86.831l45.875 86.144 29.63-10.982-75.505-75.162z"/>
	<path fill="#fff" d="M535.656 165.028l-56.172-29.058 31.118-11.555 25.054 40.613zm-54.684-28.944l53.196 27.571-23.681-38.439-29.515 10.868zM494.354 297.047h-.572l-207.067-2.746.229-.457 101.131-164.282.229.344 106.05 167.141zm-206.61-3.318l205.581 2.631-105.25-165.768-100.331 163.137z"/>
	<path fill="#fff" d="M372.745 479.058l-.229-.458-85.801-184.873 207.639 2.745-.228.458-121.381 182.128zM287.63 294.299l85.229 183.615L493.21 296.93l-205.58-2.631z"/>
	<path fill="#fff" d="M193.709 452.747l-.229-.458L89.832 293.156h.458l197.343.801-.229.458-93.695 158.332zM90.862 293.728l102.847 157.875 93.009-157.074-195.856-.801z"/>
	<path fill="#fff" d="M75.531 459.04v-.344l14.53-166.111.457.686 103.648 159.133h-.458L75.531 459.04zm14.987-164.739L76.103 458.468l117.033-6.521L90.518 294.301z"/>
	<path fill="#fff" d="M236.493 556.282L74.958 458.583h.915l118.063-6.636.114.229 42.443 104.106zM76.788 458.926l158.447 95.983-41.757-102.39-116.69 6.407z"/>
	<path fill="#fff" d="M236.5 556l-89.005-27.975L75 458l161.5 98zm-88.776-28.318l85.916 26.884-155.816-94.267 69.9 67.383z"/>
	<path fill="#fff" d="M77.022 460.641L41.9 417.283 1.06 293.5l.572-.229 75.39 167.37zm-34.55-43.587l32.147 39.698L3.347 298.42l39.125 118.634zM282.71 562.458l-48.211-6.958 170.621-14.092.114.572-122.524 20.478zm-44.274-6.864l44.274 6.178 115.66-19.334-159.934 13.156z"/>
	<path fill="#fff" d="M235.697 555.937l-42.443-104.22.458.114 179.954 26.541-.687.458-137.282 77.107zm-41.528-103.419l41.871 102.618 136.024-76.535-177.895-26.083z"/>
	<path fill="#fff" d="M234.547 555.939l1.144-.686 137.282-77.222.115.229 32.49 63.607h-.458l-170.573 14.072zm138.197-76.993l-135.566 76.307 167.599-13.729-32.033-62.578z"/>
	<path fill="#fff" d="M405.125 542.211l-.229-.343-32.49-63.264.343-.115 138.77-38.782-.801.801-105.593 101.703zm-31.804-63.15l31.919 62.235 104.334-100.331-136.253 38.096zM75.99 459.841L.94 293.157h89.691v.343L75.99 459.841zM1.856 293.729l73.789 163.938 14.3-163.938H1.856zM50.82 150.385l.572-.687L158.13 25.572l.229.344 40.956 83.17L50.82 150.385zM158.13 26.602L52.536 149.355l146.092-40.498-40.499-82.255z"/>
	<path fill="#fff" d="M90.632 293.728H.942l.114-.343 50.566-144.489 39.01 144.832zm-88.89-.572h88.09L51.507 150.84 1.742 293.156z"/>
	<path fill="#fff" d="M1.63 293.499l-.571-.115 29.63-121.266 21.622-23.452L1.63 293.499zm29.63-121.152L3.004 287.779l47.935-136.711-19.677 21.279z"/>
	<path fill="#fff" d="M30.004 173.836l15.673-32.948L158.02 25.914l.457.343L51.969 150.04l-21.965 23.796zm16.13-32.605l-13.956 29.401 19.333-21.049 100.56-116.92L46.135 141.232z"/>
	<path fill="#fff" d="M90.178 294.185l-.229-.686-38.668-143.918.23-.114 148.035-41.071-.343.572L90.178 294.185zm-38.21-144.146l38.439 142.659 107.995-183.272-146.434 40.613zM373.322 478.833l-.572-.114-179.496-26.427.229-.343 93.809-158.447.229.572 85.801 184.759zm-179.153-26.884l178.238 26.198-85.115-183.272-93.123 157.074z"/>
	<path fill="#fff" d="M372.172 478.946l.457-.687L494.01 296.475l.114.8 16.703 143.232-.229.114-138.426 38.325zm121.495-180.755L373.545 478.03l136.71-37.981-16.588-141.858z"/>
	<path fill="#fff" d="M510.373 441.423l-16.932-145.062 74.59 2.06.115.343-57.773 142.659zm-16.245-144.49l16.588 142.202 56.743-140.142-73.331-2.06z"/>
	<path fill="#fff" d="M494.244 298.534l-.572-1.03-106.051-167.827 93.009 5.949v.228l13.614 162.68zM388.536 130.363l104.907 165.883-13.385-159.934-91.522-5.949z"/>
	<path fill="#fff" d="M567.918 298.992l-74.362-2.059-13.728-162.336 88.09 164.395zm-73.904-2.631l73.332 2.059-86.717-161.078 13.385 159.019z"/>
	<path fill="#fff" d="M568.146 298.763h-.572l-88.09-163.48 55.6 28.829v.115l33.062 134.536zm-87.174-162.107l86.03 159.934-32.376-132.02-53.654-27.914z"/>
	<path fill="#fff" d="M567 301a2 2 0 1 0 .001-3.999A2 2 0 0 0 567 301zM492.867 298.785a2 2 0 1 0 .001-3.999 2 2 0 0 0-.001 3.999zM373 481a2 2 0 1 0 .001-3.999A2 2 0 0 0 373 481zM510.258 441.557a2 2 0 1 0-.001-4.001 2 2 0 0 0 .001 4.001zM405 543a2 2 0 1 0 .001-3.999A2 2 0 0 0 405 543zM281.628 563.941a2 2 0 1 0 0-4 2 2 0 0 0 0 4zM236 557a2 2 0 1 0 .001-3.999A2 2 0 0 0 236 557zM147 529a2 2 0 1 0 .001-3.999A2 2 0 0 0 147 529zM194 454a2 2 0 1 0 .001-3.999A2 2 0 0 0 194 454zM76 461a2 2 0 1 0 0-4 2 2 0 0 0 0 4zM42.184 419.338a2 2 0 1 0-.001-4 2 2 0 0 0 0 4zM287 296a2 2 0 1 0 .001-3.999A2 2 0 0 0 287 296zM90 295a2 2 0 1 0 0-4 2 2 0 0 0 0 4zM2 295a2 2 0 1 0 0-4 2 2 0 0 0 0 4zM51 152a2 2 0 1 0 0-4 2 2 0 0 0 0 4zM199 111a2 2 0 1 0 .001-3.999A2 2 0 0 0 199 111zM158 28a2 2 0 1 0 0-4 2 2 0 0 0 0 4zM283 4a2 2 0 1 0 0-4 2 2 0 0 0 0 4zM340 15a2 2 0 1 0 0-4 2 2 0 0 0 0 4zM388 132a2 2 0 1 0 .001-3.999A2 2 0 0 0 388 132zM434 50a2 2 0 1 0 0-4 2 2 0 0 0 0 4zM480 138a2 2 0 1 0 .001-3.999A2 2 0 0 0 480 138zM510 127a2 2 0 1 0 .001-3.999A2 2 0 0 0 510 127zM534 166a2 2 0 1 0 .001-3.999A2 2 0 0 0 534 166zM46 143a2 2 0 1 0 0-4 2 2 0 0 0 0 4zM31 174a2 2 0 1 0 0-4 2 2 0 0 0 0 4z"/>
</svg>
