<svg xmlns="http://www.w3.org/2000/svg" width="841" height="800" fill="none" viewBox="0 0 841 800">
	<path fill="#fff" d="M211.832 452.729l109.254-185.332.229.458 88.318 185.446h-.458l-197.343-.572zm109.139-184.188L212.862 452.042l195.856.687-87.747-184.188z"/>
	<path fill="#fff" d="M409.177 453.53l-.229-.458-88.432-185.445h.457l189.564 21.164-.229.344L409.177 453.53zm-87.746-185.217l87.746 184.073 100.331-163.137-188.077-20.936z"/>
	<path fill="#fff" d="M510.535 289.362h-.457l-189.793-21.164.687-.458 141.515-96.326.114.343 47.934 117.605zM321.772 267.74l187.848 20.936-47.362-116.461-140.486 95.525z"/>
	<path fill="#fff" d="M320.86 268.427l-.114-.343-41.07-83.285h.457l183.272-13.385-142.545 97.013zm-40.269-83.056l40.498 82.255 140.257-95.411-180.755 13.156z"/>
	<path fill="#fff" d="M280.131 185.372l-.114-.573L404.6 161.004l58.901 10.754-183.37 13.614zm124.584-23.796l-119.665 22.88 175.035-12.698-55.37-10.182z"/>
	<path fill="#fff" d="M603.084 295.313l-93.237-6.063-.115-.115-48.048-118.291 141.4 124.469zm-92.894-6.521l91.293 5.949-138.427-121.952 47.134 116.003z"/>
	<path fill="#fff" d="M602.858 296.229L461 170.959l94.61 35.693v.115l47.248 89.462zM463.746 172.675l137.282 121.152-45.875-86.717-91.407-34.435z"/>
	<path fill="#fff" d="M602.172 295.313L555 206.499l78.174 77.373-31.002 11.441zm-45.647-86.831l45.875 86.144 29.63-10.982-75.505-75.162z"/>
	<path fill="#fff" d="M657.656 324.028l-56.172-29.058 31.118-11.555 25.054 40.613zm-54.684-28.944l53.196 27.571-23.681-38.439-29.515 10.868zM616.354 456.047h-.572l-207.067-2.746.229-.457 101.131-164.282.229.344 106.05 167.141zm-206.61-3.318l205.581 2.631-105.25-165.768-100.331 163.137z"/>
	<path fill="#fff" d="M494.745 638.058l-.229-.458-85.801-184.873 207.639 2.745-.228.458-121.381 182.128zM409.63 453.299l85.229 183.615L615.21 455.93l-205.58-2.631z"/>
	<path fill="#fff" d="M315.709 611.747l-.229-.458-103.648-159.133h.458l197.343.801-.229.458-93.695 158.332zM212.862 452.728l102.847 157.875 93.009-157.074-195.856-.801z"/>
	<path fill="#fff" d="M197.531 618.04v-.344l14.529-166.111.458.686 103.648 159.133h-.458l-118.177 6.636zm14.987-164.739l-14.415 164.167 117.033-6.521-102.618-157.646z"/>
	<path fill="#fff" d="M358.493 715.282l-161.535-97.699h.915l118.063-6.636.114.229 42.443 104.106zm-159.705-97.356l158.447 95.983-41.757-102.39-116.69 6.407z"/>
	<path fill="#fff" d="M358.5 715l-89.005-27.975L197 617l161.5 98zm-88.776-28.318l85.916 26.884-155.816-94.267 69.9 67.383z"/>
	<path fill="#fff" d="M199.021 619.641L163.9 576.283 123.059 452.5l.572-.229 75.39 167.37zm-34.549-43.587l32.147 39.698-71.272-158.332 39.125 118.634zM404.71 721.458l-48.211-6.958 170.621-14.092.114.572-122.524 20.478zm-44.274-6.864l44.274 6.178 115.66-19.334-159.934 13.156z"/>
	<path fill="#fff" d="M357.697 714.937l-42.443-104.22.458.114 179.954 26.541-.687.458-137.282 77.107zm-41.528-103.419l41.871 102.618 136.024-76.535-177.895-26.083z"/>
	<path fill="#fff" d="M356.547 714.939l1.144-.686 137.282-77.222.115.229 32.49 63.607h-.458l-170.573 14.072zm138.197-76.993l-135.566 76.307 167.599-13.729-32.033-62.578z"/>
	<path fill="#fff" d="M527.125 701.211l-.229-.343-32.49-63.264.343-.115 138.77-38.782-.801.801-105.593 101.703zm-31.804-63.15l31.919 62.235 104.334-100.331-136.253 38.096zM197.989 618.841l-75.048-166.684h89.692v.343l-14.644 166.341zm-74.132-166.112l73.789 163.938 14.3-163.938h-88.089zM172.82 309.385l.572-.687 106.737-124.126.229.343 40.956 83.171-148.494 41.299zm107.309-123.783L174.536 308.355l146.092-40.498-40.499-82.255z"/>
	<path fill="#fff" d="M212.633 452.728h-89.692l.115-.343 50.565-144.489 39.012 144.832zm-88.891-.572h88.09L173.507 309.84l-49.765 142.316z"/>
	<path fill="#fff" d="M123.631 452.499l-.572-.115 29.63-121.266 21.622-23.452-50.68 144.833zm29.63-121.152l-28.258 115.432 47.935-136.711-19.677 21.279z"/>
	<path fill="#fff" d="M152.004 332.836l15.673-32.948L280.02 184.914l.457.343L173.969 309.04l-21.965 23.796zm16.131-32.605l-13.957 29.401 19.333-21.049 100.56-116.919-105.936 108.567z"/>
	<path fill="#fff" d="M212.178 453.185l-.229-.686-38.668-143.918.229-.114 148.036-41.071-.343.572-109.025 185.217zm-38.21-144.146l38.439 142.659 107.995-183.272-146.434 40.613zM495.322 637.833l-.572-.114-179.496-26.427.229-.343 93.809-158.447.229.572 85.801 184.759zm-179.153-26.884l178.238 26.198-85.115-183.272-93.123 157.074z"/>
	<path fill="#fff" d="M494.172 637.946l.457-.687L616.01 455.475l.114.8 16.703 143.232-.229.114-138.426 38.325zm121.495-180.755L495.545 637.03l136.71-37.981-16.588-141.858z"/>
	<path fill="#fff" d="M632.373 600.423l-16.932-145.062 74.59 2.06.115.343-57.773 142.659zm-16.245-144.49l16.588 142.202 56.743-140.142-73.331-2.06z"/>
	<path fill="#fff" d="M616.244 457.534l-.572-1.03-106.051-167.827 93.009 5.949v.228l13.614 162.68zM510.536 289.363l104.907 165.883-13.385-159.934-91.522-5.949z"/>
	<path fill="#fff" d="M689.918 457.992l-74.362-2.059-13.728-162.336 88.09 164.395zm-73.904-2.631l73.332 2.059-86.717-161.078 13.385 159.019z"/>
	<path fill="#fff" d="M690.146 457.763h-.572l-88.09-163.48 55.6 28.829v.115l33.062 134.536zm-87.174-162.107l86.03 159.934-32.376-132.02-53.654-27.914z"/>
	<path fill="#fff" d="M689 460a2 2 0 1 0 .001-3.999A2 2 0 0 0 689 460zM614.867 457.785a2 2 0 1 0 .001-3.999 2 2 0 0 0-.001 3.999zM495 640a2 2 0 1 0 .001-3.999A2 2 0 0 0 495 640zM632.258 600.557a2 2 0 1 0-.001-4.001 2 2 0 0 0 .001 4.001zM527 702a2 2 0 1 0 .001-3.999A2 2 0 0 0 527 702zM403.628 722.941a2 2 0 1 0 0-4 2 2 0 0 0 0 4zM358 716a2 2 0 1 0 .001-3.999A2 2 0 0 0 358 716zM269 688a2 2 0 1 0 .001-3.999A2 2 0 0 0 269 688zM316 613a2 2 0 1 0 .001-3.999A2 2 0 0 0 316 613zM198 620a2 2 0 1 0 .001-3.999A2 2 0 0 0 198 620zM164.184 578.338a2 2 0 1 0-.001-4.001 2 2 0 0 0 .001 4.001zM409 455a2 2 0 1 0 .001-3.999A2 2 0 0 0 409 455zM212 454a2 2 0 1 0 .001-3.999A2 2 0 0 0 212 454zM124 454a2 2 0 1 0 .001-3.999A2 2 0 0 0 124 454zM173 311a2 2 0 1 0 .001-3.999A2 2 0 0 0 173 311zM321 270a2 2 0 1 0 .001-3.999A2 2 0 0 0 321 270zM280 187a2 2 0 1 0 .001-3.999A2 2 0 0 0 280 187zM405 163a2 2 0 1 0 .001-3.999A2 2 0 0 0 405 163zM462 174a2 2 0 1 0 .001-3.999A2 2 0 0 0 462 174zM510 291a2 2 0 1 0 .001-3.999A2 2 0 0 0 510 291zM556 209a2 2 0 1 0 .001-3.999A2 2 0 0 0 556 209zM602 297a2 2 0 1 0 .001-3.999A2 2 0 0 0 602 297zM632 286a2 2 0 1 0 .001-3.999A2 2 0 0 0 632 286zM656 325a2 2 0 1 0 .001-3.999A2 2 0 0 0 656 325zM168 302a2 2 0 1 0 .001-3.999A2 2 0 0 0 168 302zM153 333a2 2 0 1 0 .001-3.999A2 2 0 0 0 153 333z"/>
</svg>
