<svg width="38" height="38" viewBox="0 0 38 38" fill="none" xmlns="http://www.w3.org/2000/svg">
<path d="M35.4037 36.8949L2.5967 36.8949C1.77652 36.8949 1.10547 36.2239 1.10547 35.4037L1.10547 2.5967C1.10547 1.77652 1.77652 1.10547 2.5967 1.10547L35.4037 1.10547C36.2239 1.10547 36.8949 1.77652 36.8949 2.5967L36.8949 35.4037C36.8949 36.2239 36.2239 36.8949 35.4037 36.8949Z" stroke="black" stroke-miterlimit="10" stroke-linecap="round" stroke-linejoin="round"/>
<path d="M31.6303 26.3687L6.36719 26.3687L6.36719 16.0529L11.104 16.0529L11.8935 11.6318L26.104 11.6318L26.8935 16.0529L31.6303 16.0529L31.6303 26.3687Z" stroke="black" stroke-miterlimit="10" stroke-linecap="round" stroke-linejoin="round"/>
<path d="M12.1211 25.67L12.1211 21.1055" stroke="black" stroke-miterlimit="10" stroke-linecap="round" stroke-linejoin="round"/>
<path d="M25.8125 25.67L25.8125 21.1055" stroke="black" stroke-miterlimit="10" stroke-linecap="round" stroke-linejoin="round"/>
<path d="M21.25 25.67L21.25 21.1055" stroke="black" stroke-miterlimit="10" stroke-linecap="round" stroke-linejoin="round"/>
<path d="M16.6836 25.67L16.6836 21.1055" stroke="black" stroke-miterlimit="10" stroke-linecap="round" stroke-linejoin="round"/>
</svg>
